<svg height="86.5" viewBox="0 0 63.104 86.5" width="63.104" xmlns="http://www.w3.org/2000/svg"><path d="m13.854 78.032v-20.093l-8.87 5.061-4.984-8.529 1-4.271 12.853-6.719v-26.83l1.083-4.585 28.046-12.066 19.108 26.722-1 4.27-15.538 8.864 9.748 10.75-.948 4.318-8.632 4.924-8.8-15.069-13.1 7.473 1 15.858-1 4.235-9.964 5.685zm9.966-55.673v16.165l7.319-3.641-7.318-12.524zm15.514-8.9-6.906 3.94 7.626 13.053 7.136-3.552-7.855-13.446z" fill="#87f0fb" transform="translate(0 8.468)"/><path d="m13.854 78.032v-20.093l-8.87 5.061-4.984-8.529 1.065-4.224 12.79-3.68v-29.916l1.013-4.241 3.962 1.405 24.152-13.815 19.018 26.752-.913 4.24-15.535 8.864 9.798 10.944-.993 4.12-8.632 4.924-8.8-15.069-13.1 7.473 1.006 15.861-1.006 4.232-9.964 5.685zm9.966-55.673v18.521l8.116-4.629zm15.514-8.9-6.906 3.94 8.139 13.931 6.906-3.94z" fill="#ed0091" transform="translate(1.007 4.151)"/><path d="m13.854 78.032v-20.093l-8.87 5.061-4.984-8.529 13.854-7.9v-29.92l4.975-2.836-.016-.027 24.169-13.788 18.108 30.992-15.538 8.864 8.8 15.069-8.632 4.924-8.8-15.069-13.1 7.473v20.093l-9.964 5.685zm9.966-55.673v18.521l8.116-4.629zm15.514-8.9-6.906 3.94 8.139 13.931 6.906-3.94z" fill="#feff32" transform="translate(2.015)"/></svg>