<svg height="415.657" viewBox="0 0 299.902 415.657" width="299.902" xmlns="http://www.w3.org/2000/svg"><g fill="none"><path d="m70.63 100.222v-.257l4.811-20.38.449.161 23.171-13.36-.073-.126 114.862-66.26 86.05 148.921-.615.355-4.172 19.592-.141.081.107.151-4.753 20.512-49.026 28.28 26.6 46.035-.131.076.065.073-4.721 19.8-.324.187-4.464 20.558-41.022 23.664-41.842-72.411-52.68 30.389v61.38l-.115.066-4.666 19.879-.067.039.022.358-4.742 20.348-47.37 27.324v-96.548l-42.159 24.32-23.684-40.988 4.76-20.51.125-.066-.1-.169 4.915-19.722-.13-.224.217-.125.057-.228.682-.2 55.313-31.908v-108.579z"/><path d="m213.1181488 2.73104858-111.39746093 64.2609253.07292175.12628174-1.73377991.99972534-22.98582458 13.25372314-4.44401551 18.82629395v.0236206.23059082l-.05247497.22445679-4.73474121 20.26348877v108.3507843 1.1552124l-1.00062561.57720948-55.31291199 31.9079132-.00299072.00170899-4.60287476 18.4631958.73236084 1.26782226-1.15371704.60943604-4.37530518 18.85095215 22.28915406 38.57333374 40.42753601-23.32110596 2.99937439-1.73019409v3.46261597 93.08547973l43.61738586-25.16122436 4.4785614-19.21737671-.00405883-.06512451-.07693482-1.2364502.3914032-.22607422 4.47485351-19.03897094.06147767-.26156617v-60.7267456-1.1552124l1.00062561-.57720948 52.68046569-30.38935852 1.73117066-.99864197.99989319 1.73042298 40.84204101 70.68067932 38.52375794-22.22290039 4.27572632-19.69247437.18795776-.86557006.34448242-.19869996 4.28027344-17.94976806-.99719238-1.12860108.51690673-.29833984-25.59957885-44.30232239-1.00137329-1.73295593 1.73367309-1.00009155 48.27133179-27.84588623 4.35424805-18.79194641-.85525513-1.20938111 1.26971435-.73251343 3.98654175-18.72096252.06085205-.28570557zm.73178101-2.73104858 86.05238342 148.92089844-.61526489.35488891-4.17199707 19.5918274-.14096069.08131408.10662841.15080262-4.75289917 20.51246643-49.02415466 28.28016662 26.60075379 46.03488159-.13095093.07559204.06472778.07327271-4.7210083 19.7979126-.32357788.18664551-4.46362305 20.55795288-41.02210998 23.66409301-41.84194947-72.41110229-52.68046569 30.38937378v61.37985229l-.11453247.06604004-4.67268372 19.88067627-.06741333.03897095.02226257.35766601-4.74206543 20.34802247-47.36825561 27.32492065v-96.5480957l-42.15869141 24.31973266-23.68411255-40.98742676 4.76031494-20.50967407.12463379-.06582641-.09768676-.16912842 4.91680908-19.72235108-.12963867-.22430419.21673584-.12506104.05679321-.22775269.6819458-.19839477 55.31289673-31.90791321v-108.58125305l4.78721618-20.48806763v-.25659179l4.8108368-20.38024903.44915771.16094971 23.17079163-13.36038208-.07273865-.12594605z" fill="#fff"/></g></svg>